<svg id="SECOND_TILE" data-name="SECOND TILE" xmlns="http://www.w3.org/2000/svg" viewBox="0 0 1261 1915"><defs><style>.cls-1{fill:#b8b8b8;}</style></defs><title>dots-mobile</title><path id="cross_copy" data-name="cross copy" class="cls-1" d="M365,1767H360v-5H357v5h-5V1770h5v5H360v-5H365Z"/><path id="plus_blue_copy" data-name="plus blue copy" class="cls-1" d="M964.55,204.45h-14.1V190.32h-8.16v14.13h-14.1v8.18h14.1v14.14h8.16V212.63h14.1Z"/><path id="logo_copy_4" data-name="logo copy 4" class="cls-1" d="M352,595.69h-9.7V586H336.7v9.69H327v5.61h9.7V611h5.61V601.3H352v-5.61Z"/><path id="plus_blue_copy-2" data-name="plus blue copy-2" class="cls-1" d="M172,1256.59h-6.6V1250H161.6v6.59H155v3.81h6.6V1267h3.82v-6.59H172v-3.81Z"/><path id="logo_copy_6" data-name="logo copy 6" class="cls-1" d="M874,1604.59h-6.6V1598H863.6v6.59H857v3.81h6.6V1615h3.81v-6.59H874Z"/><circle id="Ellipse_1_copy_13" data-name="Ellipse 1 copy 13" class="cls-1" cx="1054" cy="44" r="28"/><circle id="Ellipse_1_copy_13-2" data-name="Ellipse 1 copy 13-2" class="cls-1" cx="61" cy="363" r="28"/><circle id="Ellipse_1_copy_13-3" data-name="Ellipse 1 copy 13-3" class="cls-1" cx="184" cy="526" r="15"/><path id="plus_blue_copy_2" data-name="plus blue copy 2" class="cls-1" d="M644.55,508.45h-14.1V494.32h-8.16v14.13h-14.1v8.18h14.1v14.14h8.16V516.63h14.1Z"/><path id="logo_copy_7" data-name="logo copy 7" class="cls-1" d="M880,907.69h-9.7V898H864.7v9.69H855v5.61h9.7V923h5.61V913.3H880Z"/><circle id="Ellipse_1_copy_16" data-name="Ellipse 1 copy 16" class="cls-1" cx="418" cy="28" r="28"/><circle id="Ellipse_1_copy_16-2" data-name="Ellipse 1 copy 16-2" class="cls-1" cx="1233" cy="371" r="28"/><circle id="Ellipse_1_copy_16-3" data-name="Ellipse 1 copy 16-3" class="cls-1" cx="712" cy="838" r="15"/><circle id="Ellipse_1_copy_13-4" data-name="Ellipse 1 copy 13-4" class="cls-1" cx="675" cy="1275" r="28"/><circle id="Ellipse_1_copy_13-5" data-name="Ellipse 1 copy 13-5" class="cls-1" cx="1165" cy="1182" r="28"/><circle id="Ellipse_1_copy_22" data-name="Ellipse 1 copy 22" class="cls-1" cx="917" cy="650" r="28"/><circle id="Ellipse_1_copy_13-6" data-name="Ellipse 1 copy 13-6" class="cls-1" cx="798" cy="1438" r="15"/><circle id="Ellipse_1_copy_13-7" data-name="Ellipse 1 copy 13-7" class="cls-1" cx="77.5" cy="895.5" r="8.5"/><circle id="Ellipse_1_copy_13-8" data-name="Ellipse 1 copy 13-8" class="cls-1" cx="186.5" cy="1110.5" r="8.5"/><circle id="blue_circle_copy" data-name="blue circle copy" class="cls-1" cx="589" cy="1682" r="15"/><circle id="Ellipse_1_copy_13-9" data-name="Ellipse 1 copy 13-9" class="cls-1" cx="176.5" cy="1606.5" r="8.5"/><circle id="Ellipse_1_copy_13-10" data-name="Ellipse 1 copy 13-10" class="cls-1" cx="5" cy="1145" r="5"/><circle id="Ellipse_1_copy_13-11" data-name="Ellipse 1 copy 13-11" class="cls-1" cx="802" cy="1624" r="5"/><path id="logo_copy_8" data-name="logo copy 8" class="cls-1" d="M382,304.59h-6.6V298H371.6v6.59H365v3.81h6.6V315h3.82V308.4H382v-3.81Z"/><circle id="Ellipse_1_copy_19" data-name="Ellipse 1 copy 19" class="cls-1" cx="367" cy="787" r="28"/><circle id="Ellipse_1_copy_19-2" data-name="Ellipse 1 copy 19-2" class="cls-1" cx="490" cy="950" r="15"/><circle id="blue_circle_copy_2" data-name="blue circle copy 2" class="cls-1" cx="281" cy="1194" r="15"/><circle id="Ellipse_1_copy_19-3" data-name="Ellipse 1 copy 19-3" class="cls-1" cx="310" cy="324" r="5"/><circle id="Ellipse_1_copy_13-12" data-name="Ellipse 1 copy 13-12" class="cls-1" cx="259" cy="1674" r="5"/><circle id="Ellipse_1_copy_15" data-name="Ellipse 1 copy 15" class="cls-1" cx="510" cy="1735" r="5"/><circle id="Ellipse_1_copy_13-13" data-name="Ellipse 1 copy 13-13" class="cls-1" cx="80.5" cy="1270.5" r="3.5"/><circle id="Ellipse_1_copy_18" data-name="Ellipse 1 copy 18" class="cls-1" cx="948.5" cy="1882.5" r="8.5"/><circle id="Ellipse_1_copy_21" data-name="Ellipse 1 copy 21" class="cls-1" cx="701.5" cy="1899.5" r="15.5"/><circle id="Ellipse_1_copy_13-14" data-name="Ellipse 1 copy 13-14" class="cls-1" cx="770" cy="1849" r="5"/></svg>