<svg id="Visuals" xmlns="http://www.w3.org/2000/svg" viewBox="0 0 1305 2665.01"><defs><style>.cls-1{fill:#b8b8b8;}</style></defs><title>dots</title><path id="cross" class="cls-1" d="M365,2326H360v-5H357v5h-5V2329h5v5H360v-5H365Z" transform="translate(0 0.01)"/><path id="plus_blue" data-name="plus blue" class="cls-1" d="M116.55,755.45h-14.1V741.32H94.29v14.13H80.19v8.18h14.1v14.14h8.16V763.63h14.1Z" transform="translate(0 0.01)"/><path id="logo_copy_3" data-name="logo copy 3" class="cls-1" d="M352,1154.69h-9.7V1145H336.7v9.69H327v5.61h9.7V1170h5.61v-9.69H352v-5.61Z" transform="translate(0 0.01)"/><path id="plus_blue-2" data-name="plus blue-2" class="cls-1" d="M172,1815.59h-6.6V1809H161.6v6.59H155v3.81h6.6V1826h3.82v-6.59H172v-3.81Z" transform="translate(0 0.01)"/><path id="logo_copy_5" data-name="logo copy 5" class="cls-1" d="M874,2163.59h-6.6V2157H863.6v6.59H857v3.81h6.6V2174h3.81v-6.59H874Z" transform="translate(0 0.01)"/><circle class="cls-1" cx="206" cy="595.01" r="28"/><circle id="Ellipse_1_copy_5" data-name="Ellipse 1 copy 5" class="cls-1" cx="61" cy="922.01" r="28"/><circle id="Ellipse_1_copy" data-name="Ellipse 1 copy" class="cls-1" cx="184" cy="1085.01" r="15"/><circle id="Ellipse_1_copy_6" data-name="Ellipse 1 copy 6" class="cls-1" cx="675" cy="1834.01" r="28"/><circle id="Ellipse_1_copy_11" data-name="Ellipse 1 copy 11" class="cls-1" cx="1165" cy="1741.01" r="28"/><circle id="Ellipse_1_copy_6-2" data-name="Ellipse 1 copy 6-2" class="cls-1" cx="798" cy="1997.01" r="15"/><circle id="Ellipse_1_copy_2" data-name="Ellipse 1 copy 2" class="cls-1" cx="77.5" cy="1454.51" r="8.5"/><circle id="Ellipse_1_copy_7" data-name="Ellipse 1 copy 7" class="cls-1" cx="186.5" cy="1669.51" r="8.5"/><circle id="blue_circle" data-name="blue circle" class="cls-1" cx="589" cy="2241.01" r="15"/><circle id="Ellipse_1_copy_12" data-name="Ellipse 1 copy 12" class="cls-1" cx="176.5" cy="2165.51" r="8.5"/><circle id="Ellipse_1_copy_3" data-name="Ellipse 1 copy 3" class="cls-1" cx="5" cy="1704.01" r="5"/><circle id="Ellipse_1_copy_10" data-name="Ellipse 1 copy 10" class="cls-1" cx="802" cy="2183.01" r="5"/><circle id="Ellipse_1_copy_8" data-name="Ellipse 1 copy 8" class="cls-1" cx="259" cy="2233.01" r="5"/><circle id="Ellipse_1_copy_14" data-name="Ellipse 1 copy 14" class="cls-1" cx="510" cy="2294.01" r="5"/><circle id="Ellipse_1_copy_4" data-name="Ellipse 1 copy 4" class="cls-1" cx="80.5" cy="1829.51" r="3.5"/><circle id="Ellipse_1_copy_13" data-name="Ellipse 1 copy 13" class="cls-1" cx="348.5" cy="2492.51" r="8.5"/><circle id="Ellipse_1_copy_18" data-name="Ellipse 1 copy 18" class="cls-1" cx="1175.5" cy="2612.51" r="8.5"/><circle id="Ellipse_1_copy_19" data-name="Ellipse 1 copy 19" class="cls-1" cx="681.5" cy="2630.51" r="8.5"/><circle id="Ellipse_1_copy_17" data-name="Ellipse 1 copy 17" class="cls-1" cx="948.5" cy="2441.51" r="8.5"/><circle id="Ellipse_1_copy_20" data-name="Ellipse 1 copy 20" class="cls-1" cx="701.5" cy="2458.51" r="15.5"/><circle id="Ellipse_1_copy_15" data-name="Ellipse 1 copy 15" class="cls-1" cx="274" cy="2660.01" r="5"/><circle id="Ellipse_1_copy_16" data-name="Ellipse 1 copy 16" class="cls-1" cx="961" cy="2649.01" r="5"/><circle id="Ellipse_1_copy_9" data-name="Ellipse 1 copy 9" class="cls-1" cx="770" cy="2408.01" r="5"/><path class="cls-1" d="M982,0C596.49,0,284,312.5,284,698s312.49,698,698,698a694.82,694.82,0,0,0,323-79.15V79.14A694.82,694.82,0,0,0,982,0Z" transform="translate(0 0.01)"/></svg>