<svg id="Layer_1" data-name="Layer 1" xmlns="http://www.w3.org/2000/svg" viewBox="0 0 136.73 137.08"><defs><style>.cls-1{fill:#1e1e1e;}</style></defs><title>logo-icon</title><path id="logo_top_just_mark" data-name="logo top just mark" class="cls-1" d="M136.73,68.54a17.09,17.09,0,1,1-17.09-17.13A17.09,17.09,0,0,1,136.73,68.54Zm-102.55,0A17.09,17.09,0,1,1,17.09,51.41,17.09,17.09,0,0,1,34.18,68.54Zm34.19,68.54A17.14,17.14,0,1,1,85.46,119.9v0A17.11,17.11,0,0,1,68.37,137.08Zm0-102.81A17.14,17.14,0,1,1,85.46,17.09v0A17.11,17.11,0,0,1,68.37,34.27ZM86.55,64.45H72.45V50.32H64.29V64.45H50.19v8.18h14.1V86.77h8.16V72.63h14.1V64.45Z" transform="translate(0 0)"/></svg>