<?xml version="1.0" encoding="utf-8"?>
<!-- Generator: Adobe Illustrator 22.0.1, SVG Export Plug-In . SVG Version: 6.00 Build 0)  -->
<svg version="1.1" id="Layer_1" xmlns="http://www.w3.org/2000/svg" xmlns:xlink="http://www.w3.org/1999/xlink" x="0px" y="0px"
	 viewBox="0 0 6000 4000" style="enable-background:new 0 0 6000 4000;" xml:space="preserve">
<style type="text/css">
	.st0{fill:#129643;}
</style>
<circle id="blue_circle" class="st0" cx="1500" cy="2000" r="1500"/>
<path id="cross" class="st0" d="M3176,2786.2h-14.5v-14.5h-8.7v14.5h-14.5v8.4h14.5v14.5h8.4v-14.5h14.5v-8.4H3176z"/>
<path id="plus_blue-2" class="st0" d="M2617.1,1308H2598v-19.1h-11v19.1h-19.1v11h19.1v19.1h11V1319h19.1V1308L2617.1,1308z"/>
<path id="logo_copy_5" class="st0" d="M4650.1,2315.9H4631v-19.1h-11v19.1h-19.1v11h19.1v19.1h11v-19.1h19.1V2315.9L4650.1,2315.9z"
	/>
<circle id="Ellipse_1_copy_6" class="st0" cx="4073.8" cy="1361.3" r="81.1"/>
<circle id="Ellipse_1_copy_11" class="st0" cx="5492.9" cy="1092" r="81.1"/>
<circle id="Ellipse_1_copy_6-2" class="st0" cx="4430" cy="1833.4" r="43.4"/>
<circle id="Ellipse_1_copy_2" class="st0" cx="2343.4" cy="262.2" r="24.6"/>
<circle id="Ellipse_1_copy_7" class="st0" cx="2659.1" cy="884.9" r="24.6"/>
<circle id="blue_circle_1_" class="st0" cx="3824.7" cy="2540" r="43.4"/>
<circle id="Ellipse_1_copy_12" class="st0" cx="2630.1" cy="2321.4" r="24.6"/>
<circle id="Ellipse_1_copy_3" class="st0" cx="2133.4" cy="984.8" r="14.5"/>
<circle id="Ellipse_1_copy_10" class="st0" cx="4441.6" cy="2372" r="14.5"/>
<circle id="Ellipse_1_copy_8" class="st0" cx="2869" cy="2516.8" r="14.5"/>
<circle id="Ellipse_1_copy_14" class="st0" cx="3595.9" cy="2693.5" r="14.5"/>
<circle id="Ellipse_1_copy_4" class="st0" cx="2352.1" cy="1348.3" r="10.1"/>
<circle id="Ellipse_1_copy_13" class="st0" cx="3128.2" cy="3268.4" r="24.6"/>
<circle id="Ellipse_1_copy_18" class="st0" cx="5523.3" cy="3615.9" r="24.6"/>
<circle id="Ellipse_1_copy_19" class="st0" cx="4092.6" cy="3668" r="24.6"/>
<circle id="Ellipse_1_copy_17" class="st0" cx="4865.9" cy="3120.7" r="24.6"/>
<circle id="Ellipse_1_copy_20" class="st0" cx="4150.5" cy="3169.9" r="44.9"/>
<circle id="Ellipse_1_copy_15" class="st0" cx="2912.5" cy="3753.5" r="14.5"/>
<circle id="Ellipse_1_copy_16" class="st0" cx="4902.1" cy="3721.6" r="14.5"/>
<circle id="Ellipse_1_copy_9" class="st0" cx="4348.9" cy="3023.6" r="14.5"/>
</svg>
