<svg id="Layer_1" data-name="Layer 1" xmlns="http://www.w3.org/2000/svg" viewBox="0 0 23.84 24"><defs><style>.cls-1{fill:#1e1e1e;}</style></defs><title>linkedin</title><path id="linkedin" class="cls-1" d="M5.42,2.6A2.58,2.58,0,0,1,2.88,5.21H2.66A2.61,2.61,0,1,1,5.42,2.6ZM.13,24V7.25H5.25V24Zm8.19-11.4c0-2.09-.07-3.83-.13-5.34h4.45l.24,2.33H13a5.91,5.91,0,0,1,5.1-2.71c3.37,0,5.9,2.3,5.9,7.23V24H18.84V14.72c0-2.16-.74-3.63-2.6-3.63A2.81,2.81,0,0,0,13.61,13a3.81,3.81,0,0,0-.17,1.3V24H8.32V12.59Z" transform="translate(-0.13 0.01)"/></svg>