<svg id="Layer_1" data-name="Layer 1" xmlns="http://www.w3.org/2000/svg" viewBox="0 0 28 24"><defs><style>.cls-1{fill:#1e1e1e;}</style></defs><title>twitter</title><path id="twitter" class="cls-1" d="M28,2.85a10.87,10.87,0,0,1-3.3.95A6.06,6.06,0,0,0,27.23.45a11.25,11.25,0,0,1-3.65,1.47A5.58,5.58,0,0,0,19.39,0a5.92,5.92,0,0,0-5.75,6.06,6.41,6.41,0,0,0,.15,1.38A16.06,16.06,0,0,1,2,1.11a6.35,6.35,0,0,0-.78,3.05A6.16,6.16,0,0,0,3.73,9.21a5.42,5.42,0,0,1-2.6-.76v.07a6,6,0,0,0,4.6,6,5.5,5.5,0,0,1-1.51.21,5.65,5.65,0,0,1-1.08-.11,5.79,5.79,0,0,0,5.37,4.21,11.15,11.15,0,0,1-7.14,2.59A10.49,10.49,0,0,1,0,21.29,15.66,15.66,0,0,0,8.81,24c10.56,0,16.34-9.23,16.34-17.24,0-.26,0-.53,0-.79A12,12,0,0,0,28,2.85Z" transform="translate(0 -0.01)"/></svg>