<?xml version="1.0" encoding="utf-8"?>
<!-- Generator: Adobe Illustrator 22.0.1, SVG Export Plug-In . SVG Version: 6.00 Build 0)  -->
<svg version="1.1" id="Layer_1" xmlns="http://www.w3.org/2000/svg" xmlns:xlink="http://www.w3.org/1999/xlink" x="0px" y="0px"
	 viewBox="0 0 6000 4000" style="enable-background:new 0 0 6000 4000;" xml:space="preserve">
<style type="text/css">
	.st0{fill:#2A3576;}
	.st1{fill:#2E3883;}
	.st2{fill:#00215F;}
</style>
<circle id="blue_circle" class="st0" cx="4500" cy="2000" r="1500"/>
<path id="cross" class="st1" d="M1164.8,2723.6h-13.4v-13.4h-8v13.4H1130v7.8h13.4v13.4h7.8v-13.4h13.4v-7.8H1164.8z"/>
<path id="plus_blue-2" class="st1" d="M648.2,1357.3h-17.7v-17.7h-10.2v17.7h-17.7v10.2h17.7v17.7h10.2v-17.7h17.7L648.2,1357.3
	L648.2,1357.3z"/>
<path id="logo_copy_5" class="st1" d="M2527.3,2288.9h-17.7v-17.7h-10.2v17.7h-17.7v10.2h17.7v17.7h10.2V2299h17.7L2527.3,2288.9
	L2527.3,2288.9z"/>
<circle id="Ellipse_1_copy_6" class="st0" cx="1994.6" cy="1406.6" r="74.9"/>
<circle id="Ellipse_1_copy_11" class="st0" cx="2716" cy="778.9" r="74.9"/>
<circle id="Ellipse_1_copy_6-2" class="st0" cx="2323.9" cy="1842.9" r="40.2"/>
<circle id="Ellipse_1_copy_2" class="st0" cx="395.2" cy="390.8" r="22.8"/>
<circle id="Ellipse_1_copy_7" class="st0" cx="687" cy="966.3" r="22.8"/>
<circle id="blue_circle_1_" class="st0" cx="1764.4" cy="2496" r="40.2"/>
<circle id="Ellipse_1_copy_12" class="st0" cx="660.3" cy="2293.9" r="22.8"/>
<circle id="Ellipse_1_copy_3" class="st0" cx="201.2" cy="1058.6" r="13.4"/>
<circle id="Ellipse_1_copy_10" class="st0" cx="2334.6" cy="2340.8" r="13.4"/>
<circle id="Ellipse_1_copy_8" class="st0" cx="881.1" cy="2474.6" r="13.4"/>
<circle id="Ellipse_1_copy_14" class="st0" cx="1553" cy="2637.9" r="13.4"/>
<circle id="Ellipse_1_copy_4" class="st0" cx="403.3" cy="1394.5" r="9.4"/>
<circle id="Ellipse_1_copy_13" class="st2" cx="1120.7" cy="3169.3" r="22.8"/>
<circle id="Ellipse_1_copy_18" class="st2" cx="3334.4" cy="3490.5" r="22.8"/>
<circle id="Ellipse_1_copy_19" class="st2" cx="2012" cy="3538.7" r="22.8"/>
<circle id="Ellipse_1_copy_17" class="st2" cx="2726.7" cy="3032.7" r="22.8"/>
<circle id="Ellipse_1_copy_20" class="st2" cx="2065.6" cy="3078.2" r="41.5"/>
<circle id="Ellipse_1_copy_15" class="st2" cx="921.2" cy="3617.6" r="13.4"/>
<circle id="Ellipse_1_copy_16" class="st2" cx="2760.2" cy="3588.2" r="13.4"/>
<circle id="Ellipse_1_copy_9" class="st2" cx="2248.9" cy="2943.1" r="13.4"/>
</svg>
